<?xml version="1.0" encoding="utf-8"?>
<svg version="1.1" xmlns="http://www.w3.org/2000/svg" viewBox="0 0 1000 1000">
<path d="M500,990C229.4,990,10,770.6,10,500S229.4,10,500,10s490,219.4,490,490S770.6,990,500,990z M500,132.5c-202.9,0-367.5,164.6-367.5,367.5c0,202.9,164.6,367.5,367.5,367.5c202.9,0,367.5-164.6,367.5-367.5C867.5,297.1,702.9,132.5,500,132.5z M673.2,673.2c-23.9,23.9-62.7,23.9-86.6,0L500,586.6l-86.6,86.6c-23.9,23.9-62.7,23.9-86.7,0c-23.9-23.9-23.9-62.7,0-86.6l86.7-86.6l-86.7-86.6c-23.9-23.9-23.9-62.7,0-86.7c23.9-23.9,62.7-23.9,86.7,0l86.6,86.7l86.6-86.7c23.9-23.9,62.7-23.9,86.6,0c23.9,23.9,23.9,62.7,0,86.7L586.6,500l86.6,86.6C697.2,610.6,697.2,649.3,673.2,673.2z" fill="#000"/></svg>