<?xml version="1.0" encoding="utf-8"?>
<svg version="1.1" id="图层_1" xmlns="http://www.w3.org/2000/svg" viewBox="0 0 256 256">
<path d="M177.6,156.7l57.4,58L217.7,232l-58-57.5c-14.9,10.8-31.2,16.2-49.1,16.2c-23.1,0-42.7-8.2-59.1-24.5L27,190.7v-71.4h71.4
	l-30.1,30.1c11.5,11.5,25.7,17.3,42.4,17.3c14.5,0,27-4.5,37.6-13.4c10.6-8.9,17.4-20.3,20.4-34h24
	C191.1,132.7,186.1,145.1,177.6,156.7L177.6,156.7z M110.6,47.9c-14.5,0-27.1,4.5-37.9,13.4c-10.8,8.9-17.7,20.3-20.6,34h-24
	c3-20.1,12.3-37,27.9-50.8s33.8-20.6,54.7-20.6c22.7,0,42.2,8.2,58.6,24.5l24.5-24.5v71.4h-71.4l30.1-30.1
	C140.9,53.6,127,47.9,110.6,47.9L110.6,47.9z" fill="#000"/>
</svg>