<?xml version="1.0" encoding="utf-8"?>
<svg version="1.1" id="图层_1" xmlns="http://www.w3.org/2000/svg" xmlns:xlink="http://www.w3.org/1999/xlink" x="0px" y="0px"
	 viewBox="0 0 1000 1000" style="enable-background:new 0 0 1000 1000;" xml:space="preserve">
<g>
	<path d="M322.9,462.1c28.2,0,51-22.9,51-51c0-28.2-22.9-51-51-51c-28.2,0-51,22.9-51,51C271.7,439.2,294.6,462.1,322.9,462.1z" fill="#000"/>
	<path d="M496.1,462.1c28.2,0,51-22.9,51-51c0-28.2-22.9-51-51-51c-28.2,0-51,22.9-51,51C445,439.2,467.8,462.1,496.1,462.1z" fill="#000"/>
	<path d="M669.3,462.1c28.2,0,51-22.9,51-51c0-28.2-22.9-51-51-51c-28.2,0-51,22.9-51,51C618.2,439.2,641.1,462.1,669.3,462.1z" fill="#000"/>
	<path d="M889.8,70.9H102.4c-17.4,0-31.5,15.2-31.5,34v612.3c0,18.8,14.1,34,31.5,34h283.5l110.2,170.1l110.2-170.1h283.5
		c17.4,0,31.5-15.2,31.5-34V104.9C921.3,86,907.2,70.9,889.8,70.9z M836,663.3H566.4L493,774.9l-73.4-111.6H150V154.9h686V663.3
		L836,663.3z" fill="#000"/>
</g>
</svg>
