<?xml version="1.0" encoding="utf-8"?>
<svg version="1.1" xmlns="http://www.w3.org/2000/svg" viewBox="0 0 1000 1000">
<g><path d="M300.4,463.7c30.1,0,54.4-24.4,54.4-54.4c0-30.1-24.4-54.4-54.4-54.4c-30.1,0-54.4,24.4-54.4,54.4C245.9,439.3,270.3,463.7,300.4,463.7z" fill="#000"/><path d="M500,463.7c30.1,0,54.4-24.4,54.4-54.4c0-30.1-24.4-54.4-54.4-54.4c-30.1,0-54.4,24.4-54.4,54.4C445.6,439.3,469.9,463.7,500,463.7z" fill="#000"/><path d="M699.6,463.7c30.1,0,54.4-24.4,54.4-54.4c0-30.1-24.4-54.4-54.4-54.4c-30.1,0-54.4,24.4-54.4,54.4C645.2,439.3,669.6,463.7,699.6,463.7z" fill="#000"/><path d="M953.7,46.3H46.3C26.2,46.3,10,62.5,10,82.6v653.3c0,20.1,16.2,36.3,36.3,36.3H373l127,181.5l127-181.5h326.7c20.1,0,36.3-16.2,36.3-36.3l0-653.3C990,62.5,973.8,46.3,953.7,46.3z M917.4,699.6H589.3L500,827.1l-89.3-127.5H82.6V118.9h834.8V699.6z" fill="#000"/></g>
</svg>