<?xml version="1.0" encoding="utf-8"?>
<svg version="1.1" id="图层_1" xmlns="http://www.w3.org/2000/svg" viewBox="0 0 1000 1000">
	<path d="M692.2,848.6v1.4c-4.5-0.4-8.8-1.4-13.5-1.4c-62.2,0-116.7,34.6-147.9,86.4h-56.2c-31.3-51.9-85.7-86.4-148-86.4
		c-4.6,0-8.9,1.1-13.6,1.4v-1.4H69V71h271c74.8,0,162.5,64.5,162.5,144c0-79.5,87.8-144,162.6-144H936v777.6H692.2L692.2,848.6z
		 M475.4,790.9V301.4c0-95.4-72.8-172.8-162.6-172.8H123.1V791h176.3h13.4H340c69.4,0,135.4,57.7,135.4,57.7V790.9L475.4,790.9z
		 M881.9,128.5H692.2c-89.8,0-162.6,77.5-162.6,172.8v489.6v57.7c0,0,56.4-57.7,135.5-57.7h12.7h14.4h189.7V128.5L881.9,128.5z" fill="#000"/>
</svg>
