<?xml version="1.0" encoding="utf-8"?>
<svg version="1.1" xmlns="http://www.w3.org/2000/svg" viewBox="0 0 1000 1000">
<path d="M591.9,500c0,50.7-41.2,91.9-91.8,91.9c-50.7,0-92-41.2-92-91.9c0-50.7,41.2-91.9,92-91.9C550.7,408.1,591.9,449.3,591.9,500z M990,500c0,40.5-246,333-490,336.9C256,840.6,10,554.4,10,500s267-334.3,490-336.9C723,160.6,990,459.4,990,500z M714.4,500c0-118.4-95.9-214.4-214.4-214.4c-118.4,0-214.4,96-214.4,214.4c0,118.4,96,214.4,214.4,214.4C618.5,714.4,714.4,618.4,714.4,500z" fill="#000"/></svg>