<?xml version="1.0" encoding="utf-8"?>
<!DOCTYPE svg PUBLIC "-//W3C//DTD SVG 1.1//EN" "http://www.w3.org/Graphics/SVG/1.1/DTD/svg11.dtd">
<svg xmlns="http://www.w3.org/2000/svg" viewBox="0 0 1000 1000" width="256" height="256"><path fill="none" d="M0 0h24v24H0z"/><path d="M784.5,825.4H46.7c-20.3,0-36.7,16.4-36.7,36.7v6.9c0,20.3,16.4,36.7,36.7,36.7h737.8c20.3,0,36.7-16.4,36.7-36.7v-6.9C821.3,841.9,804.8,825.4,784.5,825.4z" fill="#000"/><path d="M447.7,508.7c71.6,140,243.2,195.5,383.2,123.9c140-71.6,195.5-243.2,123.9-383.2S711.7,53.9,571.6,125.5C431.6,197.1,376.1,368.7,447.7,508.7z M608,196.7c100.7-51.5,224.1-11.6,275.6,89.1c51.5,100.7,11.6,224.1-89.1,275.6C693.8,612.9,570.5,573,519,472.3C467.5,371.6,507.4,248.2,608,196.7z" fill="#000"/><path d="M46.7,662.2h416.9c-27.3-23.2-51.1-50.2-70.7-80.3H46.7c-20.3,0-36.7,16.4-36.7,36.7v6.9C10,645.7,26.4,662.2,46.7,662.2z" fill="#000"/><path d="M46.7,421.1h289.4c-1.3-12.6-2-25.4-2-38.4c0-14.2,0.8-28.2,2.4-41.9H46.7c-20.3,0-36.7,16.4-36.7,36.7v6.9C10,404.7,26.4,421.1,46.7,421.1z" fill="#000"/><path d="M46.7,177.5h350.2c20.5-30.3,45.5-57.4,74-80.3H46.7c-20.3,0-36.7,16.4-36.7,36.7v6.9C10,161,26.4,177.5,46.7,177.5z" fill="#000"/><path d="M986.1,850.3l-80.5-157.3c-8.9-17.3-30.1-24.2-47.5-15.3l-8.2,4.2c-17.3,8.9-24.2,30.1-15.3,47.5l80.5,157.3c8.9,17.3,30.1,24.2,47.5,15.3l8.2-4.2C988.1,888.9,995,867.6,986.1,850.3z" fill="#000"/></svg>