<?xml version="1.0" encoding="utf-8"?>
<svg version="1.1" id="图层_1" xmlns="http://www.w3.org/2000/svg" xmlns:xlink="http://www.w3.org/1999/xlink" x="0px" y="0px"
	 viewBox="0 0 1000 1000" style="enable-background:new 0 0 1000 1000;" xml:space="preserve">
<path d="M909.3,70.9H153.8c-6.6,0-12,6-12,13.3v126.4h-20.2c-27.9,0-50.7,22.5-50.7,50.1v0c0,27.6,22.8,50.1,50.7,50.1h20.2v57.8
	h-20.2c-27.9,0-50.7,22.5-50.7,50.1v0c0,27.6,22.8,50.1,50.7,50.1h20.2v57.8h-20.2c-27.9,0-50.7,22.5-50.7,50.1v0
	c0,27.6,22.8,50.1,50.7,50.1h20.2v57.8h-20.2c-27.9,0-50.7,22.5-50.7,50.1v0c0,27.6,22.8,50.1,50.7,50.1h20.2V908
	c0,7.3,5.4,13.3,12,13.3h755.5c6.6,0,12-6,12-13.3V84.2C921.3,76.9,915.9,70.9,909.3,70.9z M843.2,832.6c0,7.3-5.4,13.3-12,13.3
	H231.8c-6.6,0-12-6-12-13.3v-47.8H244c27.9,0,50.7-22.5,50.7-50.1v0c0-27.6-22.8-50.1-50.7-50.1h-24.2v-57.8H244
	c27.9,0,50.7-22.5,50.7-50.1v0c0-27.6-22.8-50.1-50.7-50.1h-24.2v-57.8H244c27.9,0,50.7-22.5,50.7-50.1v0
	c0-27.6-22.8-50.1-50.7-50.1h-24.2v-57.8H244c27.9,0,50.7-22.5,50.7-50.1v0c0-27.6-22.8-50.1-50.7-50.1h-24.2v-52.1
	c0-7.3,5.4-13.3,12-13.3h599.4c6.6,0,12,6,12,13.3V832.6z" fill="#000"/>
<path d="M734.7,543.2l-41.6-22.7c1.3-6.8,2.2-13.8,2.2-20.9c0-7.2-0.9-14.2-2.3-21l41.6-22.7c19.6-10.7,26.2-34.2,14.9-52.6
	s-36.1-24.8-55.7-14.1l-42,22.9c-11.2-9-24-16.1-38.1-20.9v-45.7c0-21.3-18.2-38.5-40.8-38.5c-22.5,0-40.8,17.2-40.8,38.5v45.6
	C518,395.9,505.2,403,494,412l-41.9-22.8c-19.5-10.6-44.5-4.3-55.7,14.1s-4.5,41.9,15,52.6l41.5,22.6c-1.4,6.8-2.2,13.9-2.2,21.1
	c0,7.2,0.9,14.1,2.2,21l-41.5,22.6c-19.6,10.6-26.2,34.2-14.9,52.6c11.2,18.3,36.2,24.7,55.7,14.1l41.9-22.8
	c11.2,9,24,16.2,38.2,20.9v45.6c0,21.3,18.3,38.5,40.8,38.5s40.8-17.2,40.8-38.5V608c14.2-4.8,27-11.9,38.1-20.9l41.9,22.9
	c19.5,10.6,44.4,4.3,55.7-14.1C760.9,577.4,754.2,553.9,734.7,543.2L734.7,543.2z M532.3,499.6c0-21.3,18.2-38.5,40.8-38.5
	c22.5,0,40.8,17.2,40.8,38.5s-18.3,38.5-40.8,38.5C550.5,538.1,532.3,520.8,532.3,499.6z" fill="#000"/>
</svg>
