<?xml version="1.0" encoding="utf-8"?>
<svg version="1.1" id="图层_1" xmlns="http://www.w3.org/2000/svg" viewBox="0 0 1000 1000">
<path d="M721.6,953.7l-397.3-1c-102.2,0-185.4-79-185.4-157.9v-32.3c0-11.2,11.8-20.4,26.5-20.4h64.4c14.6,0,26.5-9.1,26.5-20.4
	c0-11.2-11.9-20.4-26.5-20.4h-64.2c-14.6,0-26.5-9.1-26.5-20.4v-136c0-11.2,11.9-20.4,26.5-20.4H230c14.6,0,26.5-9.2,26.5-20.4
	s-11.9-20.4-26.5-20.4h-64.4c-14.6,0-26.5-9.2-26.5-20.4V325.2c0-11.2,11.9-20.4,26.5-20.4H230c14.6,0,26.5-9.1,26.5-20.4
	c0-11.2-11.9-20.4-26.5-20.4h-64.4c-14.6,0-26.5-9.2-26.5-20.4v-37.4c0-78.8,83.1-157.8,185.3-157.8h397.3
	c102.2,0,203.4,79,203.4,157.9V795C925,873.5,837.2,953.7,721.6,953.7z M192.1,782.9v12c0,56.3,59.4,94.4,132.4,94.4h397.3
	c73,0,132.4-38.1,132.4-94.4V206.1c0-56.3-59.4-94.1-132.4-94.1H324.4C254,112,192,149.8,192,206.1v17h37.8
	c43.8,0,79.4,27.5,79.4,61.2s-35.7,61.2-79.4,61.2H192v97h37.8c43.8,0,79.4,27.5,79.4,61.2S273.5,565,229.8,565H192v95.3h37.8
	c43.8,0,79.4,27.5,79.4,61.2s-35.7,61.2-79.4,61.2L192.1,782.9L192.1,782.9L192.1,782.9z" fill="#000"/>
<path d="M165.6,345.6H124c-43.8,0-79.4-27.5-79.4-61.2s35.7-61.2,79.4-61.2h41.6c14.6,0,26.5,9.2,26.5,20.4S180.2,264,165.6,264H124
	c-14.6,0-26.5,9.2-26.5,20.4s11.9,20.4,26.5,20.4h41.6c14.6,0,26.5,9.2,26.5,20.4C192.1,336.4,180.1,345.6,165.6,345.6z" fill="#000"/>
<path d="M229.9,345.6h-64.4c-14.6,0-26.5-9.2-26.5-20.4s11.9-20.4,26.5-20.4h64.4c14.6,0,26.5-9.1,26.5-20.4S244.5,264,229.9,264
	h-64.4c-14.6,0-26.5-9.2-26.5-20.4s12-20.6,26.6-20.6H230c43.8,0,79.4,27.5,79.4,61.2S273.7,345.6,229.9,345.6z" fill="#000"/>
<path d="M165.6,565.1H124c-43.8,0-79.4-27.5-79.4-61.2s35.7-61.2,79.4-61.2h41.6c14.6,0,26.5,9.1,26.5,20.4
	c0,11.2-11.9,20.4-26.5,20.4H124c-14.6,0-26.5,9.1-26.5,20.4c0,11.2,11.9,20.4,26.5,20.4h41.6c14.6,0,26.5,9.1,26.5,20.4
	C192.1,555.9,180.1,565.1,165.6,565.1z" fill="#000"/>
<path d="M229.9,565.1h-64.4c-14.6,0-26.5-9.2-26.5-20.4s11.9-20.4,26.5-20.4h64.4c14.6,0,26.5-9.1,26.5-20.4
	c0-11.3-11.9-20.4-26.5-20.4h-64.4c-14.6,0-26.5-9.2-26.5-20.4c0-11.2,11.9-20.4,26.5-20.4h64.4c43.8,0,79.4,27.5,79.4,61.2
	S273.7,565.1,229.9,565.1z" fill="#000"/>
<path d="M165.6,782.9H124c-43.8,0-79.4-27.5-79.4-61.2s35.7-61.2,79.4-61.2h41.6c14.6,0,26.5,9.1,26.5,20.4
	c0,11.2-11.9,20.4-26.5,20.4H124c-14.6,0-26.5,9.1-26.5,20.4c0,11.2,11.9,20.4,26.5,20.4h41.6c14.6,0,26.5,9.2,26.5,20.4
	C192.1,773.7,180.1,782.9,165.6,782.9z" fill="#000"/>
<path d="M229.9,782.9h-64.4c-14.6,0-26.5-9.2-26.5-20.4s12-20.5,26.6-20.5H230c14.6,0,26.5-9.1,26.5-20.4
	c0-11.2-11.9-20.4-26.5-20.4h-64.4c-14.6,0-26.5-9.1-26.5-20.4c0-11.2,11.9-20.4,26.5-20.4H230c43.8,0,79.4,27.5,79.4,61.2
	S273.7,782.9,229.9,782.9z" fill="#000"/>
		<path d="M743.6,551.1l-41.6-22.7c1.3-6.8,2.2-13.8,2.2-20.9c0-7.2-0.9-14.2-2.3-21l41.6-22.7c19.6-10.7,26.2-34.2,14.9-52.6
			c-11.3-18.4-36.1-24.8-55.7-14.1l-42,22.9c-11.2-9-24-16.1-38.1-20.9v-45.7c0-21.3-18.2-38.5-40.8-38.5
			c-22.5,0-40.8,17.2-40.8,38.5v45.6c-14.1,4.8-26.9,11.9-38.1,20.9l-41.9-22.8c-19.5-10.6-44.5-4.3-55.7,14.1
			c-11.2,18.4-4.5,41.9,15,52.6l41.5,22.6c-1.4,6.8-2.2,13.9-2.2,21.1c0,7.2,0.9,14.1,2.2,21l-41.5,22.6
			c-19.6,10.6-26.2,34.2-14.9,52.6c11.2,18.3,36.2,24.7,55.7,14.1L503,595c11.2,9,24,16.2,38.2,20.9v45.6
			c0,21.3,18.3,38.5,40.8,38.5c22.5,0,40.8-17.2,40.8-38.5v-45.6c14.2-4.8,27-11.9,38.1-20.9l41.9,22.9
			c19.5,10.6,44.4,4.3,55.7-14.1C769.8,585.3,763.1,561.8,743.6,551.1L743.6,551.1z M541.2,507.5c0-21.3,18.2-38.5,40.8-38.5
			c22.5,0,40.8,17.2,40.8,38.5c0,21.3-18.3,38.5-40.8,38.5C559.4,546,541.2,528.7,541.2,507.5z" fill="#000"/>
</svg>
