<?xml version="1.0" encoding="utf-8"?>
<svg version="1.1" id="图层_1" xmlns="http://www.w3.org/2000/svg" xmlns:xlink="http://www.w3.org/1999/xlink" x="0px" y="0px"
	 viewBox="0 0 1000 1000" style="enable-background:new 0 0 1000 1000;" xml:space="preserve">
<path d="M909.3,70.9H153.8c-6.6,0-12,6-12,13.3v126.4h-20.2c-27.9,0-50.7,22.5-50.7,50.1v0c0,27.6,22.8,50.1,50.7,50.1h20.2v57.8
	h-20.2c-27.9,0-50.7,22.5-50.7,50.1v0c0,27.6,22.8,50.1,50.7,50.1h20.2v57.8h-20.2c-27.9,0-50.7,22.5-50.7,50.1v0
	c0,27.6,22.8,50.1,50.7,50.1h20.2v57.8h-20.2c-27.9,0-50.7,22.5-50.7,50.1v0c0,27.6,22.8,50.1,50.7,50.1h20.2V908
	c0,7.3,5.4,13.3,12,13.3h755.5c6.6,0,12-6,12-13.3V84.2C921.3,76.9,915.9,70.9,909.3,70.9z M843.2,832.6c0,7.3-5.4,13.3-12,13.3
	H231.8c-6.6,0-12-6-12-13.3v-47.8H244c27.9,0,50.7-22.5,50.7-50.1v0c0-27.6-22.8-50.1-50.7-50.1h-24.2v-57.8H244
	c27.9,0,50.7-22.5,50.7-50.1v0c0-27.6-22.8-50.1-50.7-50.1h-24.2v-57.8H244c27.9,0,50.7-22.5,50.7-50.1v0
	c0-27.6-22.8-50.1-50.7-50.1h-24.2v-57.8H244c27.9,0,50.7-22.5,50.7-50.1v0c0-27.6-22.8-50.1-50.7-50.1h-24.2v-52.1
	c0-7.3,5.4-13.3,12-13.3h599.4c6.6,0,12,6,12,13.3V832.6z" fill="#000"/>
<path d="M727.7,541H409.8c-6.6,0-12-5.4-12-12v-67.7c0-6.6,5.4-12,12-12h317.9c6.6,0,12,5.4,12,12V529
	C739.7,535.6,734.3,541,727.7,541z" fill="#000"/>
<path d="M522.9,654V336.2c0-6.6,5.4-12,12-12h67.7c6.6,0,12,5.4,12,12V654c0,6.6-5.4,12-12,12h-67.7
	C528.3,666,522.9,660.6,522.9,654z" fill="#000"/>
</svg>
