<?xml version="1.0" encoding="utf-8"?>
<svg version="1.1" id="图层_1" xmlns="http://www.w3.org/2000/svg" xmlns:xlink="http://www.w3.org/1999/xlink" x="0px" y="0px"
	 viewBox="0 0 1000 1000" style="enable-background:new 0 0 1000 1000;" xml:space="preserve">
<g>
	<path d="M727.9,70.9H153.1c0,0-72.3,0.9-82.2,75.6v694.7c0,0-0.8,80.1,97.5,80.1h669.2c0,0,77.6-3.9,83.8-76.7V282.8L836,340.9
		l-1.6,502.4l-678.3-0.7V147.8h509.3L727.9,70.9z" fill="#000"/>
	<path d="M800.4,107.7l90.2,63.8l18.8-22.8c0,0,14.3-17.1,0-38c0,0-13.2-19.7-35.4-31.1c0,0-30.2-15-50.2,3.1L800.4,107.7z" fill="#000"/>
	<path d="M862.1,205.3L708.4,390.6c0,0-13.7,22.8-37.7,33.2l-68,29.6c0,0-18.2,8.4-22.2-14.5l12-68c0,0-1.2-12.5,17.1-34.2
		L772.4,141L862.1,205.3z" fill="#000"/>
	<path d="M293.4,552.9H696c0,0,13.2-3.1,12.6,17.1v34.2c0,0-2.8,9.4-18.3,7.3l-392.8,0.3c0,0-13.7,0.8-14.8-11.2v-39.5
		C282.5,561.3,284.8,552.9,293.4,552.9z" fill="#000"/>
	<path d="M293.4,689H696c0,0,13.2-3.1,12.6,17.1v34.2c0,0-2.8,9.4-18.3,7.3l-392.8,0.3c0,0-13.7,0.8-14.8-11.2v-39.5
		C282.5,697.2,284.8,689,293.4,689z" fill="#000"/>
</g>
</svg>
