<?xml version="1.0" encoding="utf-8"?>
<svg version="1.1" xmlns="http://www.w3.org/2000/svg" viewBox="0 0 1000 1000"><path d="M612.3,146.1h265.4c16.9,0,30.6-13.7,30.6-30.6c0-16.9-13.7-30.6-30.6-30.6H612.3c-16.9,0-30.6,13.7-30.6,30.6C581.7,132.4,595.4,146.1,612.3,146.1z" fill="#000"/><path d="M836.9,204H632.7c-58.6,0-93.9-27.9-104.6-52.9c-22-51.3-99.9-90-181.3-90H163.1C78.7,61.1,10,129.7,10,214.2v571.6c0,84.4,68.7,153.1,153.1,153.1h673.7c84.4,0,153.1-68.7,153.1-153.1V357.1C990,272.7,921.3,204,836.9,204z M928.7,785.8c0,50.7-41.2,91.9-91.9,91.9H163.1c-50.7,0-91.9-41.2-91.9-91.9V214.2c0-50.7,41.2-91.9,91.9-91.9h183.8c58.5,0,114.3,27.9,125,52.9c22,51.3,79.5,90,160.9,90h204.2c50.7,0,91.9,41.2,91.9,91.9V785.8z" fill="#000"/><path d="M674.7,540.5H531.5V396.9c0-17.5-14-31.7-31.2-31.7s-31.2,14.3-31.2,31.7v143.5H325.3c-17.5,0-31.7,14-31.7,31.2c0,17.2,14.3,31.2,31.7,31.2h143.8v143.5c0,17.5,14,31.7,31.2,31.7c17.2,0,31.2-14.3,31.2-31.7V602.8h143.3c17.5,0,31.7-14,31.7-31.2C706.5,554.5,692.2,540.5,674.7,540.5z" fill="#000"/></svg>