<?xml version="1.0" encoding="utf-8"?>
<svg xmlns="http://www.w3.org/2000/svg" viewBox="0 0 1000 1000">
<g>
	<path d="M735.4,54H148c0,0-73.9,0.9-84,79.5v730.3c0,0-0.8,84.2,99.6,84.2h683.8c0,0,79.3-4.1,85.6-80.6V276.8l-87.1,61.1
		l-1.6,528.2l-693.1-0.7V134.9h520.4L735.4,54z" fill="#000"/>
	<path d="M809.5,92.7l92.2,67.1l19.2-24c0,0,14.6-18,0-39.9c0,0-13.5-20.7-36.2-32.7c0,0-30.9-15.8-51.3,3.3L809.5,92.7z" fill="#000"/>
	<path d="M872.5,195.3l-157,194.8c0,0-14,24-38.5,34.9l-69.5,31.1c0,0-18.6,8.8-22.7-15.2l12.3-71.5c0,0-1.2-13.1,17.5-36
		l166.3-205.7L872.5,195.3z" fill="#000"/>
	<path d="M291.4,560.8h411.4c0,0,13.5-3.3,12.9,18v36c0,0-2.9,9.9-18.7,7.7l-401.4,0.3c0,0-14,0.8-15.1-11.8v-41.5
		C280.3,569.6,282.6,560.8,291.4,560.8z" fill="#000"/>
	<path d="M291.4,703.8h411.4c0,0,13.5-3.3,12.9,18v36c0,0-2.9,9.9-18.7,7.7l-401.4,0.3c0,0-14,0.8-15.1-11.8v-41.5
		C280.3,712.5,282.6,703.8,291.4,703.8z" fill="#000"/>
</g>
</svg>
