<?xml version="1.0" encoding="utf-8"?>
<svg version="1.1" id="图层_1" xmlns="http://www.w3.org/2000/svg" viewBox="0 0 1000 1000">
<path d="M721.7,48.4H324.4c-102.2,0-185.3,79-185.3,157.8v17H124c-43.7,0-79.4,27.5-79.4,61.2s35.6,61.2,79.4,61.2h15.1v97.1H124
	c-43.7,0-79.4,27.5-79.4,61.2s35.6,61.2,79.4,61.2h15.1v95.4H124c-43.7,0-79.4,27.5-79.4,61.2s35.6,61.2,79.4,61.2h14.9v11.9
	c0,78.9,83.2,157.9,185.4,157.9l397.3,1c115.6,0,203.4-80.2,203.5-158.7V206.3C925.1,127.4,823.9,48.4,721.7,48.4z M641.5,112v150
	l-38.1-38.1l-1.3,1.3l-0.1,0l-37.4,37.4V112H641.5z M97.5,284.4c0-11.2,11.9-20.4,26.5-20.4h41.5h0.1h64.3
	c14.6,0,26.5,9.1,26.5,20.4s-11.9,20.4-26.5,20.4h-64.3h-0.1H124C109.4,304.8,97.5,295.6,97.5,284.4z M97.5,503.9
	c0-11.3,11.9-20.4,26.5-20.4h37.9c1.2,0.1,2.4,0.2,3.7,0.2H230c11.8,0,21.8,6,25.2,14.2c0.8,1.9,1.2,3.9,1.2,6
	c0,11.3-11.9,20.4-26.5,20.4h-64.3h-0.1H124C109.4,524.3,97.5,515.1,97.5,503.9z M97.5,721.7c0-11.3,11.9-20.4,26.5-20.4h41.6
	c0,0,0,0,0,0h64.2c14.6,0,26.5,9.2,26.5,20.4c0,7.1-4.6,13.2-11.7,16.9c-4.2,2.1-9.2,3.4-14.6,3.4h-64.4c-0.9,0-1.7,0-2.6,0.1h-39
	C109.4,742.1,97.5,732.9,97.5,721.7z M854.2,794.9c0,56.3-59.4,94.4-132.4,94.4H324.5c-73,0-132.4-38.1-132.4-94.4v-12h37.8
	c43.8,0,79.5-27.6,79.5-61.3c0-21.1-14-39.8-35.2-50.8c-12.7-6.6-28-10.5-44.4-10.5H192v-95.2h37.9c43.8,0,79.4-27.5,79.4-61.2
	c0-7.4-1.7-14.6-4.9-21.2c-11.1-23.4-40.4-40.2-74.6-40.2H192v-96.9h37.9c43.8,0,79.5-27.7,79.5-61.4S273.8,223,230,223h-38v-16.9
	c0-56.3,62-94.1,132.4-94.1h157.2v351.1l35.8-35.8c0-0.1,0.1-0.2,0.1-0.3l85.8-85.8l38.2,38.2v0.5c0.1,0.1,0.2,0.2,0.2,0.3
	l82.8,82.8V112c71.8,0.9,129.7,38.5,129.7,94.1V794.9z" fill="#000"/></svg>
