<?xml version="1.0" encoding="utf-8"?>
<svg version="1.1" id="图层_1" xmlns="http://www.w3.org/2000/svg" xmlns:xlink="http://www.w3.org/1999/xlink" x="0px" y="0px"
	 viewBox="0 0 1000 1000" style="enable-background:new 0 0 1000 1000;" xml:space="preserve">
<path d="M909.3,70.9H153.8c-6.6,0-12,6-12,13.3v126.4h-20.2c-27.9,0-50.7,22.5-50.7,50.1l0,0c0,27.6,22.8,50.1,50.7,50.1h20.2v57.8
	h-20.2c-27.9,0-50.7,22.5-50.7,50.1l0,0c0,27.6,22.8,50.1,50.7,50.1h20.2v57.8h-20.2c-27.9,0-50.7,22.5-50.7,50.1l0,0
	c0,27.6,22.8,50.1,50.7,50.1h20.2v57.8h-20.2c-27.9,0-50.7,22.5-50.7,50.1l0,0c0,27.6,22.8,50.1,50.7,50.1h20.2V908
	c0,7.3,5.4,13.3,12,13.3h755.5c6.6,0,12-6,12-13.3V84.2C921.3,76.9,915.9,70.9,909.3,70.9z M843.2,832.6c0,7.3-5.4,13.3-12,13.3
	H231.8c-6.6,0-12-6-12-13.3v-47.8H244c27.9,0,50.7-22.5,50.7-50.1l0,0c0-27.6-22.8-50.1-50.7-50.1h-24.2v-57.8H244
	c27.9,0,50.7-22.5,50.7-50.1l0,0c0-27.6-22.8-50.1-50.7-50.1h-24.2v-57.8H244c27.9,0,50.7-22.5,50.7-50.1l0,0
	c0-27.6-22.8-50.1-50.7-50.1h-24.2v-57.8H244c27.9,0,50.7-22.5,50.7-50.1l0,0c0-27.6-22.8-50.1-50.7-50.1h-24.2v-52.1
	c0-7.3,5.4-13.3,12-13.3h599.4c6.6,0,12,6,12,13.3L843.2,832.6L843.2,832.6z" fill="#000"/>
<g>
	<polygon class="st0" points="740.8,145.2 655,145.2 655,304 604.5,253.5 552,305.9 552,145.2 465.2,145.2 465.2,524 552,437.3 
		552,436.6 601.9,386.7 602.2,387.1 602.5,386.7 740.8,525 	" fill="#000"/>
</g>
</svg>
