<?xml version="1.0" encoding="utf-8"?>
<svg version="1.1" id="图层_1" xmlns="http://www.w3.org/2000/svg" viewBox="0 0 1000 1000">
			<path d="M721.6,953.7l-397.3-1c-102.2,0-185.4-79-185.4-157.9v-32.3c0-11.2,11.8-20.4,26.5-20.4h64.4c14.6,0,26.5-9.1,26.5-20.4
				c0-11.2-11.9-20.4-26.5-20.4h-64.2c-14.6,0-26.5-9.1-26.5-20.4v-136c0-11.2,11.9-20.4,26.5-20.4h64.4c14.6,0,26.5-9.2,26.5-20.4
				s-11.9-20.4-26.5-20.4h-64.4c-14.6,0-26.5-9.2-26.5-20.4V325.2c0-11.2,11.9-20.4,26.5-20.4h64.4c14.6,0,26.5-9.1,26.5-20.4
				c0-11.2-11.9-20.4-26.5-20.4h-64.4c-14.6,0-26.5-9.2-26.5-20.4v-37.4c0-78.8,83.1-157.8,185.3-157.8h397.3
				c102.2,0,203.4,79,203.4,157.9v588.7C925,873.5,837.2,953.7,721.6,953.7z M192.1,782.9v12c0,56.3,59.4,94.4,132.4,94.4h397.3
				c73,0,132.4-38.1,132.4-94.4V206.1c0-56.3-59.4-94.1-132.4-94.1H324.4c-70.4,0-132.4,37.8-132.4,94.1v17h37.8
				c43.8,0,79.4,27.5,79.4,61.2s-35.7,61.2-79.4,61.2h-37.8v97h37.8c43.8,0,79.4,27.5,79.4,61.2S273.5,565,229.8,565h-37.8v95.3
				h37.8c43.8,0,79.4,27.5,79.4,61.2s-35.7,61.2-79.4,61.2L192.1,782.9L192.1,782.9L192.1,782.9z" fill="#000"/>
			<path d="M165.6,345.6H124c-43.8,0-79.4-27.5-79.4-61.2c0-33.7,35.7-61.2,79.4-61.2h41.6c14.6,0,26.5,9.2,26.5,20.4
				s-11.9,20.4-26.5,20.4H124c-14.6,0-26.5,9.2-26.5,20.4s11.9,20.4,26.5,20.4h41.6c14.6,0,26.5,9.2,26.5,20.4
				C192.1,336.4,180.1,345.6,165.6,345.6z" fill="#000"/>
			<path d="M229.9,345.6h-64.4c-14.6,0-26.5-9.2-26.5-20.4s11.9-20.4,26.5-20.4h64.4c14.6,0,26.5-9.1,26.5-20.4
				c0-11.3-11.9-20.4-26.5-20.4h-64.4c-14.6,0-26.5-9.2-26.5-20.4S151,223,165.6,223h64.4c43.8,0,79.4,27.5,79.4,61.2
				S273.7,345.6,229.9,345.6z" fill="#000"/>
			<path d="M165.6,565.1H124c-43.8,0-79.4-27.5-79.4-61.2s35.7-61.2,79.4-61.2h41.6c14.6,0,26.5,9.1,26.5,20.4
				c0,11.2-11.9,20.4-26.5,20.4H124c-14.6,0-26.5,9.1-26.5,20.4c0,11.2,11.9,20.4,26.5,20.4h41.6c14.6,0,26.5,9.1,26.5,20.4
				C192.1,555.9,180.1,565.1,165.6,565.1z" fill="#000"/>
			<path d="M229.9,565.1h-64.4c-14.6,0-26.5-9.2-26.5-20.4s11.9-20.4,26.5-20.4h64.4c14.6,0,26.5-9.1,26.5-20.4
				c0-11.3-11.9-20.4-26.5-20.4h-64.4c-14.6,0-26.5-9.2-26.5-20.4c0-11.2,11.9-20.4,26.5-20.4h64.4c43.8,0,79.4,27.5,79.4,61.2
				C309.3,537.6,273.7,565.1,229.9,565.1z" fill="#000"/>
			<path d="M165.6,782.9H124c-43.8,0-79.4-27.5-79.4-61.2s35.7-61.2,79.4-61.2h41.6c14.6,0,26.5,9.1,26.5,20.4
				c0,11.2-11.9,20.4-26.5,20.4H124c-14.6,0-26.5,9.1-26.5,20.4c0,11.2,11.9,20.4,26.5,20.4h41.6c14.6,0,26.5,9.2,26.5,20.4
				C192.1,773.7,180.1,782.9,165.6,782.9z" fill="#000"/>
			<path d="M229.9,782.9h-64.4c-14.6,0-26.5-9.2-26.5-20.4S151,742,165.6,742h64.4c14.6,0,26.5-9.1,26.5-20.4
				c0-11.2-11.9-20.4-26.5-20.4h-64.4c-14.6,0-26.5-9.1-26.5-20.4c0-11.2,11.9-20.4,26.5-20.4h64.4c43.8,0,79.4,27.5,79.4,61.2
				S273.7,782.9,229.9,782.9z" fill="#000"/></svg>
