<?xml version="1.0" encoding="utf-8"?>
<svg version="1.1" xmlns="http://www.w3.org/2000/svg" viewBox="0 0 1000 1000"><path d="M836.9,938.9H163.1C78.7,938.9,10,870.3,10,785.8V214.2c0-84.4,68.7-153.1,153.1-153.1h183.7c81.3,0,159.3,38.7,181.3,90c10.7,25,46,52.9,104.6,52.9h204.2c84.4,0,153.1,68.7,153.1,153.1v428.7C990,870.3,921.3,938.9,836.9,938.9z M163.1,122.3c-50.7,0-91.9,41.2-91.9,91.9v571.6c0,50.7,41.2,91.9,91.9,91.9h673.8c50.7,0,91.9-41.2,91.9-91.9V357.1c0-50.7-41.2-91.9-91.9-91.9H632.7c-81.4,0-138.9-38.7-160.9-90c-10.7-25-66.4-52.9-125-52.9H163.1z" fill="#000"/><path d="M877.7,146.1H612.3c-16.9,0-30.6-13.7-30.6-30.6c0-16.9,13.7-30.6,30.6-30.6h265.4c16.9,0,30.6,13.7,30.6,30.6C908.3,132.4,894.6,146.1,877.7,146.1z" fill="#000"/></svg>