<?xml version="1.0" encoding="utf-8"?>
<svg version="1.1" id="图层_1" xmlns="http://www.w3.org/2000/svg" viewBox="0 0 256 256">
<path d="M193.1,14.2H62.9c-22.5,0-41.8,16.8-41.8,37.4l1,155.2c0,20.6,15.6,37.4,40.8,37.4h120.9l51.1-52.4V51.6
	C234.9,30.9,215.6,14.2,193.1,14.2z M41.6,206.7V51.6c0-12.2,7.9-19.3,21.3-19.3h130.2c13.4,0,21.3,7,21.3,19.3v132.6l-42.1-0.3V226
	H62.9C49.5,226.1,41.6,219.1,41.6,206.7z" fill="#000"/>
<path d="M162.4,111.7l-40.7,0.3L147,50.9h-29.3l-32.9,80.5l40.9-1.3l-17.3,72L162.4,111.7z" fill="#000"/>
</svg>
