<?xml version="1.0" encoding="utf-8"?>
<svg xmlns="http://www.w3.org/2000/svg" viewBox="0 0 256 256">
<path d="M193.1,10.1H62.9c-22.5,0-40.8,17.2-40.8,38.2v158.6c0,21.1,18.3,38.2,40.8,38.2h120.9l50.1-53.6V48.3
	C233.9,27.2,215.6,10.1,193.1,10.1z M38.6,206.9V48.3c0-12.5,10.9-22.7,24.3-22.7h130.2c13.4,0,24.3,10.2,24.3,22.7v135.5l-45.1-0.3
	v46.1H62.9C49.5,229.7,38.6,219.5,38.6,206.9z" fill="#000"/>
<path d="M162.3,118.4l-35.8,0.3l25.3-61.1h-29.3l-32.9,80.5l40.9-1.3l-17.2,59.4L162.3,118.4z" fill="#000"/>
</svg>
