<?xml version="1.0" encoding="utf-8"?>
<svg version="1.1" id="图层_1" xmlns="http://www.w3.org/2000/svg" viewBox="0 0 256 256">
<path d="M226.3,169.6c-6.6,0-11.9,5.3-11.9,11.7c0,0.6,0.1,1.1,0.2,1.6v27.3c0,3.5-2.9,6.3-6.4,6.3h-35.4
		c-6.6,0-11.9,5.3-11.9,11.7c0,6.5,5.3,11.7,11.9,11.7h41.8c13.1,0,23.8-10.5,23.8-23.5v-35.2h-0.2
		C238.2,174.9,232.9,169.6,226.3,169.6z" fill="#000"/>
	<path d="M30.2,93.3c6.6,0,11.9-5.3,11.9-11.7h0.2V52.7c0-3.5,2.9-6.3,6.4-6.3h35.1c6.6,0,11.9-5.3,11.9-11.7s-5.3-11.7-11.9-11.7
		H42.2c-13.1,0-23.8,10.5-23.8,23.5v33.6c-0.1,0.6-0.2,1.1-0.2,1.6C18.3,88.1,23.6,93.3,30.2,93.3z" fill="#000"/>
	<path d="M172.8,46.4h35.4c3.5,0,6.4,2.8,6.4,6.3v27.3c-0.1,0.6-0.2,1.1-0.2,1.6c0,6.5,5.3,11.7,11.9,11.7s11.9-5.3,11.9-11.7h0.2
		V46.4c0-13-10.7-23.5-23.8-23.5h-41.8c-6.6,0-11.9,5.3-11.9,11.7C160.9,41.1,166.2,46.4,172.8,46.4z" fill="#000"/>
	<path d="M83.7,216.6h-35c-3.5,0-6.4-2.8-6.4-6.3v-28.9h-0.2c0-6.5-5.3-11.7-11.9-11.7s-11.9,5.3-11.9,11.7c0,0.6,0.1,1.1,0.2,1.6
		v33.6c0,13,10.7,23.5,23.8,23.5h41.4c6.6,0,11.9-5.3,11.9-11.7C95.6,221.8,90.2,216.6,83.7,216.6z" fill="#000"/>
	<path d="M222.2,118.3H35c-9,0-16.3,4.3-16.3,13.2c0,8.9,7.3,13.2,16.3,13.2h187.2c9,0,16.3-4.3,16.3-13.2
		C238.5,122.6,231.2,118.3,222.2,118.3z" fill="#000"/></svg>
