<?xml version="1.0" encoding="utf-8"?>
<!DOCTYPE svg PUBLIC "-//W3C//DTD SVG 1.1//EN" "http://www.w3.org/Graphics/SVG/1.1/DTD/svg11.dtd">
<svg xmlns="http://www.w3.org/2000/svg" viewBox="0 0 1000 1000" width="256" height="256"><path fill="none" d="M0 0h24v24H0z"/><path d="M500,75.3c234.2,0,424.7,190.5,424.7,424.7c0,234.2-190.5,424.7-424.7,424.7C265.8,924.7,75.3,734.2,75.3,500C75.3,265.8,265.8,75.3,500,75.3 M500,10C229.4,10,10,229.3,10,500c0,270.7,219.4,490,490,490c270.7,0,490-219.3,490-490C990,229.3,770.7,10,500,10L500,10z" fill="#000"/><path d="M713.4,467.7L452,277.1c-10.2-7.3-22.9-7.6-33.2-1c-10.4,6.7-16.9,19.5-16.9,33.3v381.1c0,13.9,6.5,26.6,16.9,33.3c4.9,3.2,10.4,4.8,15.8,4.8c6,0,12-1.9,17.3-5.8l261.3-190.6c9.5-6.9,15.4-19.1,15.4-32.3C728.7,486.9,722.9,474.7,713.4,467.7z" fill="#000"/></svg>
