<?xml version="1.0" encoding="utf-8"?>
<svg version="1.1" id="图层_1" xmlns="http://www.w3.org/2000/svg" viewBox="0 0 1000 1000">
		<path d="M143.3,239.2l-88.4,62.7v-86.1l88.4-62.7h88.4V733h-88.4V239.2z" fill="#000"/>
	<path d="M359.9,654.6l159.1-282.2c13.3-27.4,13.3-43.1,13.3-74.5c0-27.4,0-62.7-44.2-62.7c-26.5,0-44.2,15.7-44.2,43.1v47h-88.4
		v-50.9c0-70.5,57.5-125.4,132.6-125.4c92.8,0,128.2,66.6,128.2,145c0,54.9,0,70.5-30.9,121.5L457.2,650.7h159.1V733H359.9V654.6z" fill="#000"/>
	<path d="M779.9,396c53,0,70.7-7.8,70.7-50.9v-74.5c0-23.5-17.7-39.2-44.2-39.2c-30.9,0-44.2,23.5-44.2,39.2v47h-88.4v-47
		c0-66.6,61.9-121.5,132.6-121.5c48.6,0,79.6,23.5,97.3,39.2c26.5,27.4,35.4,50.9,35.4,121.5c0,78.4-4.4,94.1-53,121.5
		c53,31.4,53,51,53,133.3c0,74.5-4.4,94.1-22.1,117.6c-22.1,31.3-53,50.9-106.1,50.9c-57.5,0-128.2-31.4-128.2-121.5v-47H771v43.1
		c0,27.4,17.7,43.1,44.2,43.1s44.2-19.6,44.2-47v-82.2c0-43.1-13.3-54.9-70.7-54.9v-70.5L779.9,396L779.9,396z" fill="#000"/>
	<path d="M143.3,239.2l-88.4,62.7v-86.1l88.4-62.7h88.4V733h-88.4V239.2z" fill="#000"/>
	<path d="M359.9,654.6l159.1-282.2c13.3-27.4,13.3-43.1,13.3-74.5c0-27.4,0-62.7-44.2-62.7c-26.5,0-44.2,15.7-44.2,43.1v47h-88.4
		v-50.9c0-70.5,57.5-125.4,132.6-125.4c92.8,0,128.2,66.6,128.2,145c0,54.9,0,70.5-30.9,121.5L457.2,650.7h159.1V733H359.9V654.6z" fill="#000"/>
	<path d="M779.9,396c53,0,70.7-7.8,70.7-50.9v-74.5c0-23.5-17.7-39.2-44.2-39.2c-30.9,0-44.2,23.5-44.2,39.2v47h-88.4v-47
		c0-66.6,61.9-121.5,132.6-121.5c48.6,0,79.6,23.5,97.3,39.2c26.5,27.4,35.4,50.9,35.4,121.5c0,78.4-4.4,94.1-53,121.5
		c53,31.4,53,51,53,133.3c0,74.5-4.4,94.1-22.1,117.6c-22.1,31.3-53,50.9-106.1,50.9c-57.5,0-128.2-31.4-128.2-121.5v-47H771v43.1
		c0,27.4,17.7,43.1,44.2,43.1s44.2-19.6,44.2-47v-82.2c0-43.1-13.3-54.9-70.7-54.9v-70.5L779.9,396L779.9,396z" fill="#000"/>
<rect x="54.9" y="831" width="884.1" height="74" fill="#000"/>
</svg>
