<?xml version="1.0" encoding="utf-8"?>
<svg version="1.1" id="图层_1" xmlns="http://www.w3.org/2000/svg" xmlns:xlink="http://www.w3.org/1999/xlink" x="0px" y="0px"
	 viewBox="0 0 256 256" style="enable-background:new 0 0 256 256;" xml:space="preserve">
<g id="g4129" transform="matrix(0.94902408,0,0,0.92795152,20.974757,35.673852)">
	<path d="M215.4,75.7l-15.6-1.6c-1.7-5.8-4-11.5-6.8-16.8l9.8-12.4c4-5,3.3-12.9-1.6-17.8L186,11.3c-2.7-2.8-6.4-4.3-9.9-4.3
		c-2.9,0-5.4,0.9-7.5,2.7l-12.2,10c-5.2-3-10.8-5.2-16.5-7l-1.6-15.9c-0.6-6.5-6.6-11.5-13.5-11.5h-21.6c-6.9,0-12.8,5-13.5,11.5
		L88,12.7c-5.7,1.7-11.2,4.1-16.5,7l-12.2-10C57.3,8,54.6,7,51.8,7c-3.7,0-7.3,1.5-9.9,4.3L26.4,26.9c-4.9,5-5.5,12.9-1.6,17.9
		l9.8,12.4c-2.9,5.3-5.1,11-6.9,16.8l-15.6,1.7c-6.1,0.7-11,6.8-11,13.8v22.1c0,7.1,4.9,13.1,11.2,13.8l15.6,1.6
		c1.7,5.8,4,11.5,6.9,16.8L25,156.2c-4,5-3.3,12.9,1.6,17.9l15.3,15.7c2.7,2.8,6.2,4.3,9.9,4.3c2.9,0,5.4-0.9,7.5-2.7l12.2-10
		c5.2,2.9,10.8,5.2,16.5,7l1.6,15.9c0.6,6.5,6.6,11.5,13.5,11.5h21.6c6.9,0,12.8-5,13.5-11.5l1.6-15.9c5.7-1.7,11.2-4.1,16.5-7
		l12.2,10c2,1.7,4.7,2.7,7.5,2.7c3.6,0,7.3-1.5,9.9-4.3l15.3-15.7c4.9-5,5.6-12.8,1.6-17.8l-9.8-12.4c2.9-5.3,5.1-11,6.8-16.8
		l15.6-1.6c6.2-0.7,11.2-6.8,11.2-13.8V89.5C226.6,82.5,221.7,76.4,215.4,75.7L215.4,75.7z M215.9,111.7c0,1.6-1,3-1.6,3l-22.8,2.5
		l-0.9,3.7c-1.8,7.4-4.7,14.4-8.5,21l-1.8,3.3l14.4,18.2c0.4,0.5,0.3,2.2-0.8,3.3l-15.3,15.7c-0.6,0.6-1.5,1.1-2.4,1.1
		c-0.3,0-0.7-0.1-0.8-0.2l-17.9-14.9l-3.2,1.9c-6.5,3.9-13.3,6.8-20.5,8.7l-3.6,0.9l-2.5,23.4c-0.1,0.7-1.3,1.7-2.9,1.7h-21.6
		c-1.5,0-2.9-1-2.9-1.7l-2.4-23.4l-3.6-0.9c-7.2-1.8-14.1-4.8-20.5-8.7l-3.2-1.8l-17.8,14.8c-0.2,0.1-0.5,0.2-0.8,0.2
		c-0.8,0-1.7-0.4-2.5-1.1L34,166.7c-1.1-1.1-1.3-2.8-0.8-3.3l14.4-18.2l-1.9-3.3c-3.8-6.6-6.7-13.6-8.5-21l-0.9-3.7l-22.8-2.5
		c-0.7-0.1-1.6-1.3-1.6-3V89.5c0-1.6,1-2.9,1.6-3L36.3,84l0.9-3.7c1.8-7.4,4.7-14.4,8.5-21l1.9-3.3L33.1,38
		c-0.4-0.5-0.3-2.2,0.8-3.3l15.3-15.6c0.7-0.7,1.6-1.1,2.5-1.1c0.3,0,0.6,0.1,0.8,0.2l17.9,14.7l3.2-1.9c6.5-3.9,13.3-6.9,20.5-8.7
		l3.6-0.9L100.3-2c0.1-0.7,1.3-1.7,2.9-1.7h21.6c1.5,0,2.9,1,2.9,1.7l2.5,23.4l3.6,0.9c7.2,1.8,14.1,4.8,20.5,8.7l3.2,1.9l17.8-14.8
		c0.2-0.1,0.4-0.2,0.8-0.2c0.8,0,1.7,0.4,2.5,1.1L194,34.6c1.1,1.1,1.3,2.8,0.8,3.3l-14.3,18.2l1.8,3.3c3.8,6.6,6.7,13.6,8.5,21
		l0.9,3.7l22.8,2.5c0.7,0.1,1.6,1.3,1.6,3L215.9,111.7z M113.8,64.4c-19.5,0-35.3,16.2-35.3,36.2c0,19.9,15.9,36.2,35.3,36.2
		s35.3-16.3,35.3-36.2C149.2,80.6,133.4,64.4,113.8,64.4z M113.8,125.8c-13.6,0-24.7-11.4-24.7-25.2s11.1-25.3,24.7-25.3
		s24.7,11.4,24.7,25.3C138.6,114.5,127.5,125.8,113.8,125.8z" fill="#000"/>
	<path d="M124.1,217.2h-21.6c-7.9,0-14.7-5.8-15.5-13.3l-1.5-14.5c-4.9-1.6-9.7-3.7-14.3-6.1l-11.3,9.1c-5.5,4.6-14.7,3.7-20.2-1.8
		l-15.3-15.7c-5.6-5.7-6.4-14.8-1.7-20.6l9-11.4c-2.5-4.7-4.4-9.6-5.9-14.6l-14.2-1.5c-7.3-0.6-13-7.6-13-15.7V88.9
		c0-8.1,5.7-15.1,13-15.9l14.2-1.5c1.5-5,3.6-9.9,5.9-14.6l-9-11.4c-4.6-5.8-3.8-14.9,1.7-20.6L39.6,9.1c5.6-5.5,14.7-6.4,20.2-1.8
		l11.2,9.2c4.6-2.5,9.4-4.5,14.3-6.1l1.5-14.5c0.7-7.5,7.6-13.3,15.5-13.3H124c7.9,0,14.7,5.8,15.5,13.3l1.5,14.5
		c4.9,1.6,9.7,3.7,14.3,6.1l11.2-9.2c5.5-4.6,14.7-3.8,20.2,1.8l15.3,15.7c5.6,5.7,6.4,14.8,1.7,20.6l-9,11.4
		c2.4,4.7,4.4,9.6,5.9,14.6l14.2,1.5c7.4,0.8,13,7.7,13,15.9V111c0,8.1-5.7,15.1-13,15.9l-14.1,1.5c-1.5,5-3.6,9.9-5.9,14.6l9,11.4
		c4.6,5.8,3.8,14.9-1.7,20.6L187,190.8c-5.4,5.5-14.7,6.4-20.2,1.8l-11.2-9.2c-4.6,2.5-9.4,4.5-14.3,6.1l-1.5,14.5
		C138.8,211.4,131.9,217.2,124.1,217.2L124.1,217.2z M70.7,178.5l1.1,0.6c5.1,2.9,10.6,5.1,16.1,6.9l1.2,0.4l1.7,17.2
		c0.5,5.4,5.6,9.6,11.5,9.6h21.6c5.9,0,11-4.2,11.5-9.6l1.7-17.2l1.3-0.4c5.5-1.7,11-4,16.1-6.9l1.1-0.6l13.2,10.9
		c4,3.3,10.8,2.7,14.8-1.5l15.3-15.7c4.2-4.3,4.8-11,1.4-15.2l-10.7-13.5l0.6-1.2c2.8-5.2,5-10.8,6.7-16.5l0.4-1.2l16.8-1.8
		c5.3-0.5,9.4-5.7,9.4-11.8V88.9c0-6-4.1-11.2-9.4-11.8l-16.8-1.8L197,74c-1.6-5.6-3.9-11.2-6.7-16.5l-0.6-1.1l10.8-13.6
		c3.4-4.2,2.7-10.9-1.4-15.2l-15.3-15.7c-4.1-4-10.8-4.7-14.8-1.4l-13.2,11l-1.1-0.6c-5.1-2.9-10.5-5.1-16.1-6.9l-1.3-0.4l-1.7-17.2
		c-0.5-5.4-5.6-9.6-11.5-9.6h-21.6c-5.9,0-11,4.2-11.5,9.6l-1.6,17.4l-1.2,0.4c-5.7,1.6-11.2,3.8-16.3,6.7l-1.1,0.6L57.5,10.6
		c-4-3.4-10.8-2.7-14.8,1.4L27.2,27.7c-4.2,4.3-4.8,11-1.4,15.2l10.7,13.5l-0.7,1.1c-2.8,5.2-5,10.8-6.7,16.5l-0.3,1.3L12,77.1
		c-5.3,0.5-9.4,5.7-9.4,11.8V111c0,6,4.1,11.2,9.4,11.8l16.8,1.8l0.4,1.2c1.6,5.7,3.9,11.3,6.7,16.5l0.6,1.2l-10.7,13.7
		c-3.4,4.2-2.7,10.9,1.4,15.2l15.3,15.7c4,4.1,10.8,4.8,14.8,1.5L70.7,178.5z M124.1,206.3h-21.6c-2.5,0-4.7-1.6-4.9-3.6l-2.3-21.9
		l-2.3-0.6c-7.4-1.9-14.4-4.9-21-8.9l-1.9-1.1L53.4,184c-1.3,1.1-4.2,0.7-5.9-1L32,167.3c-1.7-1.7-2.2-4.5-1-6l13.5-17.1l-1.1-2
		c-3.9-6.8-6.9-13.9-8.7-21.5l-0.5-2.3l-21.4-2.3c-1.9-0.2-3.5-2.5-3.5-5V88.9c0-2.5,1.5-4.8,3.5-5l21.4-2.4l0.5-2.3
		c1.9-7.6,4.8-14.8,8.7-21.5l1.1-2L30.9,38.6c-1.2-1.5-0.7-4.3,1-6l15.3-15.7c1-1,2.5-1.7,3.8-1.7c0.6,0,1.4,0.1,2,0.7l16.8,13.8
		l1.9-1.2c6.6-4,13.6-7,21-8.9l2.3-0.6l2.4-21.8c0.2-1.8,2.5-3.6,4.9-3.6H124c2.5,0,4.7,1.6,4.9,3.6l2.3,21.9l2.3,0.6
		c7.4,1.9,14.5,4.9,21.1,8.9l1.9,1.1l16.8-13.8c1.5-1.2,4.3-0.7,5.9,1l15.3,15.7c1.7,1.7,2.2,4.5,1,6L182,55.7l1.1,2
		c3.9,6.7,6.9,13.9,8.7,21.5l0.5,2.3l21.4,2.3c1.9,0.2,3.5,2.6,3.5,5V111c0,2.6-1.5,4.8-3.5,5l-21.4,2.3l-0.5,2.3
		c-1.9,7.6-4.8,14.8-8.7,21.5l-1.1,2l13.5,17.1c1.2,1.5,0.7,4.3-1,6l-15.3,15.7c-1.7,1.7-4.5,2.2-5.9,1l-16.7-13.8l-1.9,1.1
		c-6.6,4-13.6,7-21,8.9l-2.3,0.6l-2.3,21.9C128.8,204.7,126.5,206.3,124.1,206.3z M101.5,201.9c0.2,0.1,0.5,0.3,0.9,0.3H124
		c0.4,0,0.8-0.2,0.9-0.3l2.5-24.4l4.9-1.3c7-1.8,13.7-4.7,20-8.4l4.4-2.7l18.6,15.4c0.3-0.1,0.6-0.2,0.8-0.5l15.3-15.7
		c0.3-0.3,0.4-0.6,0.5-0.9l-15-19l2.7-4.5c3.7-6.5,6.6-13.3,8.3-20.5l1.2-5.1l23.8-2.6c0.1-0.2,0.3-0.5,0.3-1V88.9
		c0-0.4-0.2-0.8-0.3-1l-23.8-2.6l-1.2-5c-1.7-7.2-4.6-14-8.3-20.4l-2.7-4.5l15.1-19.1c-0.1-0.2-0.2-0.6-0.5-0.9l-15.3-15.6
		c-0.3-0.3-0.6-0.4-0.8-0.5l-18.6,15.4l-4.4-2.7c-6.2-3.8-13-6.7-20-8.5l-4.9-1.3L125-2.2c-0.2-0.1-0.5-0.3-0.9-0.3h-21.6
		c-0.4,0-0.8,0.2-0.9,0.3l-2.5,24.4l-4.9,1.2c-7.1,1.8-13.7,4.7-20,8.5l-4.4,2.7L51.1,19.4c-0.3,0.1-0.6,0.2-0.8,0.5L34.7,35.5
		c-0.3,0.3-0.4,0.6-0.5,0.9l15.1,19.1l-2.6,4.3c-3.7,6.5-6.6,13.3-8.3,20.5l-1.2,5l-23.8,2.6c-0.1,0.2-0.3,0.5-0.3,0.9V111
		c0,0.4,0.2,0.7,0.3,1l23.8,2.6l1.2,5.1c1.8,7.2,4.6,14,8.3,20.4l2.7,4.5l-15.1,19.1c0,0.2,0.2,0.5,0.5,0.9l15.3,15.7
		c0.3,0.3,0.6,0.4,0.8,0.5l18.6-15.4l4.4,2.7c6.2,3.8,13,6.6,20,8.4l4.9,1.3L101.5,201.9z M113.2,138.2c-20.6,0-37.4-17.1-37.4-38.2
		s16.7-38.2,37.4-38.2s37.4,17.1,37.4,38.2C150.6,121,133.9,138.2,113.2,138.2z M113.2,65.9c-18.3,0-33.4,15.3-33.4,34.1
		s15,34.1,33.4,34.1s33.4-15.4,33.4-34.1C146.6,81.2,131.6,65.9,113.2,65.9z M113.2,127.4c-14.8,0-26.7-12.3-26.7-27.4
		s12-27.4,26.7-27.4s26.7,12.3,26.7,27.4S128,127.4,113.2,127.4L113.2,127.4z M113.2,76.7c-12.5,0-22.6,10.4-22.6,23.3
		s10.1,23.3,22.6,23.3s22.7-10.5,22.7-23.3S125.8,76.7,113.2,76.7z" fill="#000"/>
</g>
</svg>
