<?xml version="1.0" encoding="utf-8"?>
<svg version="1.1" id="图层_1" xmlns="http://www.w3.org/2000/svg" viewBox="0 0 256 256"><path fill="none" d="M0,0h24v24H0Z"/><g id="g4129" transform="matrix(0.94902408,0,0,0.92795152,20.974757,35.673852)">
	<path d="M212.4,74.9l-15.2-1.6c-1.7-5.7-3.9-11.2-6.6-16.4l9.6-12.1c3.9-4.9,3.2-12.6-1.6-17.4L183.7,12c-2.6-2.7-6.2-4.2-9.7-4.2
		c-2.8,0-5.3,0.9-7.3,2.6l-11.9,9.8c-5.1-2.9-10.5-5.1-16.1-6.8l-1.6-15.5c-0.6-6.3-6.4-11.2-13.2-11.2h-21.1
		c-6.7,0-12.5,4.9-13.2,11.2L88,13.4c-5.6,1.7-10.9,4-16.1,6.8l-11.9-9.8c-2-1.7-4.6-2.6-7.3-2.6c-3.6,0-7.1,1.5-9.7,4.2L28.1,27.3
		c-4.8,4.9-5.4,12.6-1.6,17.5l9.6,12.1c-2.8,5.2-5,10.7-6.7,16.4l-15.2,1.7C8.2,75.6,3.4,81.5,3.4,88.4V110
		c0,6.9,4.8,12.8,10.9,13.5l15.2,1.6c1.7,5.7,3.9,11.2,6.7,16.4l-9.6,12.1c-3.9,4.9-3.2,12.6,1.6,17.5l14.9,15.3
		c2.6,2.7,6.1,4.2,9.7,4.2c2.8,0,5.3-0.9,7.3-2.6l11.9-9.8c5.1,2.8,10.5,5.1,16.1,6.8l1.6,15.5c0.6,6.3,6.4,11.2,13.2,11.2h21.1
		c6.7,0,12.5-4.9,13.2-11.2l1.6-15.5c5.6-1.7,10.9-4,16.1-6.8l11.9,9.8c2,1.7,4.6,2.6,7.3,2.6c3.5,0,7.1-1.5,9.7-4.2l14.9-15.3
		c4.8-4.9,5.5-12.5,1.6-17.4l-9.6-12.1c2.8-5.2,5-10.7,6.6-16.4l15.2-1.6c6.1-0.7,10.9-6.6,10.9-13.5V88.4
		C223.3,81.5,218.5,75.6,212.4,74.9L212.4,74.9z M212.9,110c0,1.6-1,2.9-1.6,2.9l-22.3,2.4l-0.9,3.6c-1.8,7.2-4.6,14.1-8.3,20.5
		l-1.8,3.2l14.1,17.8c0.4,0.5,0.3,2.1-0.8,3.2l-14.9,15.3c-0.6,0.6-1.5,1.1-2.3,1.1c-0.3,0-0.7-0.1-0.8-0.2l-17.4-14.4l-3.1,1.9
		c-6.3,3.8-13,6.6-20,8.5l-3.5,0.9l-2.4,22.8c-0.1,0.7-1.3,1.7-2.8,1.7h-21.1c-1.5,0-2.8-1-2.8-1.7l-2.3-22.8l-3.5-0.9
		c-7-1.8-13.8-4.7-20-8.5l-3.1-1.8l-17.4,14.4c-0.2,0.1-0.5,0.2-0.8,0.2c-0.8,0-1.7-0.4-2.4-1.1l-14.9-15.3
		c-1.1-1.1-1.3-2.7-0.8-3.2l14.1-17.8l-1.9-3.2c-3.7-6.4-6.5-13.3-8.3-20.5l-0.9-3.6l-22.3-2.4c-0.7-0.1-1.6-1.3-1.6-2.9V88.4
		c0-1.6,1-2.8,1.6-2.9l22.3-2.4l0.9-3.6c1.8-7.2,4.6-14.1,8.3-20.5l1.9-3.2L34.6,38.1c-0.4-0.5-0.3-2.1,0.8-3.2l14.9-15.2
		c0.7-0.7,1.6-1.1,2.4-1.1c0.3,0,0.6,0.1,0.8,0.2L71,33.1l3.1-1.9c6.3-3.8,13-6.7,20-8.5l3.5-0.9L100-1c0.1-0.7,1.3-1.7,2.8-1.7
		h21.1c1.5,0,2.8,1,2.8,1.7l2.4,22.8l3.5,0.9c7,1.8,13.8,4.7,20,8.5l3.1,1.9l17.4-14.4c0.2-0.1,0.4-0.2,0.8-0.2
		c0.8,0,1.7,0.4,2.4,1.1l14.9,15.2c1.1,1.1,1.3,2.7,0.8,3.2L178,55.8l1.8,3.2c3.7,6.4,6.5,13.3,8.3,20.5l0.9,3.6l22.3,2.4
		c0.7,0.1,1.6,1.3,1.6,2.9L212.9,110z M113.3,63.9c-19,0-34.5,15.8-34.5,35.3c0,19.4,15.5,35.3,34.5,35.3s34.5-15.9,34.5-35.3
		C147.9,79.7,132.4,63.9,113.3,63.9z M113.3,123.8c-13.3,0-24.1-11.1-24.1-24.6s10.8-24.7,24.1-24.7s24.1,11.1,24.1,24.7
		C137.5,112.8,126.7,123.8,113.3,123.8z" fill="#000"/>
	<path d="M123.9,213.6h-21.1c-7.7,0-14.3-5.7-15.1-13l-1.5-14.2c-4.8-1.6-9.5-3.6-14-6l-10.9,9c-5.4,4.5-14.3,3.6-19.7-1.8
		l-14.9-15.3c-5.5-5.6-6.2-14.4-1.7-20.1l8.8-11.1c-2.4-4.6-4.3-9.4-5.8-14.3l-13.9-1.5C7,124.7,1.4,117.9,1.4,110V88.4
		c0-7.9,5.6-14.7,12.7-15.5L28,71.4c1.5-4.9,3.5-9.7,5.8-14.3L25,46c-4.5-5.7-3.7-14.5,1.7-20.1l14.9-15.3C47,5.2,55.9,4.3,61.3,8.8
		l10.9,9c4.5-2.4,9.2-4.4,14-6l1.5-14.2c0.7-7.3,7.4-13,15.1-13h21.1c7.7,0,14.3,5.7,15.1,13l1.5,14.2c4.8,1.6,9.5,3.6,14,6l10.9-9
		c5.4-4.5,14.3-3.7,19.7,1.8L200,25.9c5.5,5.6,6.2,14.4,1.7,20.1l-8.8,11.1c2.3,4.6,4.3,9.4,5.8,14.3l13.9,1.5
		c7.2,0.8,12.7,7.5,12.7,15.5V110c0,7.9-5.6,14.7-12.7,15.5l-13.8,1.5c-1.5,4.9-3.5,9.7-5.8,14.3l8.8,11.1
		c4.5,5.7,3.7,14.5-1.7,20.1l-14.9,15.3c-5.3,5.4-14.3,6.2-19.7,1.8l-10.9-9c-4.5,2.4-9.2,4.4-14,6l-1.5,14.2
		C138.3,207.9,131.6,213.6,123.9,213.6L123.9,213.6z M71.8,175.8l1.1,0.6c5,2.8,10.3,5,15.7,6.7l1.2,0.4l1.7,16.8
		c0.5,5.3,5.5,9.4,11.2,9.4h21.1c5.8,0,10.7-4.1,11.2-9.4l1.7-16.8l1.3-0.4c5.4-1.7,10.7-3.9,15.7-6.7l1.1-0.6l12.9,10.6
		c3.9,3.2,10.5,2.6,14.4-1.5l14.9-15.3c4.1-4.2,4.7-10.7,1.4-14.8l-10.4-13.2l0.6-1.2c2.7-5.1,4.9-10.5,6.5-16.1l0.4-1.2l16.4-1.8
		c5.2-0.5,9.2-5.6,9.2-11.5V88.4c0-5.9-4-10.9-9.2-11.5l-16.4-1.8l-0.4-1.3c-1.6-5.5-3.8-10.9-6.5-16.1l-0.6-1.1l10.4-13.2
		c3.3-4.1,2.6-10.6-1.4-14.8l-14.9-15.3c-4-4-10.5-4.7-14.4-1.5l-12.9,10.7l-1.1-0.6c-5-2.8-10.2-5-15.7-6.7l-1.3-0.4l-1.7-16.8
		c-0.5-5.3-5.5-9.4-11.2-9.4h-21.1c-5.8,0-10.7,4.1-11.2,9.4L89.9,15l-1.2,0.4C83.2,17,77.9,19.2,72.9,22l-1.1,0.6L58.9,12
		C55,8.7,48.4,9.4,44.5,13.4l-15,15.2c-4.1,4.2-4.7,10.7-1.4,14.8l10.4,13.2l-0.6,1.1c-2.7,5.1-4.9,10.5-6.5,16.1L31,75.1l-16.4,1.8
		c-5.2,0.5-9.2,5.6-9.2,11.5V110c0,5.9,4,10.9,9.2,11.5l16.4,1.8l0.4,1.2c1.6,5.6,3.8,11,6.5,16.1l0.6,1.2l-10.4,13.2
		c-3.3,4.1-2.6,10.6,1.4,14.8l14.9,15.3c3.9,4,10.5,4.7,14.4,1.5L71.8,175.8z M123.9,203h-21.1c-2.4,0-4.6-1.6-4.8-3.5l-2.2-21.4
		l-2.2-0.6c-7.2-1.9-14.1-4.8-20.5-8.7l-1.9-1.1l-16.3,13.5c-1.3,1.1-4.1,0.7-5.8-1l-15-15.3c-1.7-1.7-2.1-4.4-1-5.9l13.2-16.7
		l-1.1-2c-3.8-6.6-6.7-13.6-8.5-21l-0.5-2.2l-20.9-2.2c-1.9-0.2-3.4-2.4-3.4-4.9V88.4c0-2.4,1.5-4.7,3.4-4.9l20.9-2.3l0.5-2.2
		c1.9-7.4,4.7-14.4,8.5-21l1.1-2L33.1,39.3c-1.2-1.5-0.7-4.2,1-5.9L49,18.1c1-1,2.4-1.7,3.7-1.7c0.6,0,1.4,0.1,2,0.7l16.4,13.5
		l1.9-1.2c6.4-3.9,13.3-6.8,20.5-8.7l2.2-0.6L98-1.2c0.2-1.8,2.4-3.5,4.8-3.5h21.1c2.4,0,4.6,1.6,4.8,3.5l2.2,21.4l2.2,0.6
		c7.2,1.9,14.2,4.8,20.6,8.7l1.9,1.1l16.4-13.5c1.5-1.2,4.2-0.7,5.8,1l14.9,15.3c1.7,1.7,2.1,4.4,1,5.9L180.4,56l1.1,2
		c3.8,6.5,6.7,13.6,8.5,21l0.5,2.2l20.9,2.2c1.9,0.2,3.4,2.5,3.4,4.9V110c0,2.5-1.5,4.7-3.4,4.9l-20.9,2.2l-0.5,2.2
		c-1.9,7.4-4.7,14.4-8.5,21l-1.1,2l13.2,16.7c1.2,1.5,0.7,4.2-1,5.9l-14.9,15.3c-1.7,1.7-4.4,2.1-5.8,1l-16.3-13.5l-1.9,1.1
		c-6.4,3.9-13.3,6.8-20.5,8.7l-2.2,0.6l-2.2,21.4C128.5,201.4,126.3,203,123.9,203z M101.9,198.7c0.2,0.1,0.5,0.3,0.9,0.3h21.1
		c0.4,0,0.8-0.2,0.9-0.3l2.4-23.8l4.8-1.3c6.8-1.8,13.4-4.6,19.5-8.2l4.3-2.6l18.2,15c0.3-0.1,0.6-0.2,0.8-0.5l14.9-15.3
		c0.3-0.3,0.4-0.6,0.5-0.9l-14.7-18.6l2.6-4.4c3.6-6.3,6.4-13,8.1-20l1.2-5l23.2-2.5c0.1-0.2,0.3-0.5,0.3-1V88.4
		c0-0.4-0.2-0.8-0.3-1l-23.2-2.5l-1.2-4.9c-1.7-7-4.5-13.7-8.1-19.9l-2.6-4.4l14.7-18.6c-0.1-0.2-0.2-0.6-0.5-0.9l-14.9-15.2
		c-0.3-0.3-0.6-0.4-0.8-0.5l-18.2,15l-4.3-2.6c-6.1-3.7-12.7-6.5-19.5-8.3l-4.8-1.3l-2.4-23.7c-0.2-0.1-0.5-0.3-0.9-0.3h-21.1
		c-0.4,0-0.8,0.2-0.9,0.3l-2.4,23.8l-4.8,1.2c-6.9,1.8-13.4,4.6-19.5,8.3l-4.3,2.6l-18.2-15c-0.3,0.1-0.6,0.2-0.8,0.5L36.8,36.2
		c-0.3,0.3-0.4,0.6-0.5,0.9l14.7,18.6L48.5,60c-3.6,6.3-6.4,13-8.1,20l-1.2,4.9L16,87.4c-0.1,0.2-0.3,0.5-0.3,0.9V110
		c0,0.4,0.2,0.7,0.3,1l23.2,2.5l1.2,5c1.8,7,4.5,13.7,8.1,19.9l2.6,4.4l-14.7,18.6c0,0.2,0.2,0.5,0.5,0.9l14.9,15.3
		c0.3,0.3,0.6,0.4,0.8,0.5l18.2-15l4.3,2.6c6.1,3.7,12.7,6.4,19.5,8.2l4.8,1.3L101.9,198.7z M113.3,136.5
		c-20.1,0-36.5-16.7-36.5-37.3c0-20.6,16.3-37.3,36.5-37.3s36.5,16.7,36.5,37.3C149.8,119.7,133.5,136.5,113.3,136.5z M113.3,65.9
		c-17.9,0-32.6,14.9-32.6,33.3c0,18.4,14.6,33.3,32.6,33.3c18,0,32.6-15,32.6-33.3C145.9,80.8,131.3,65.9,113.3,65.9z M113.3,125.9
		c-14.4,0-26.1-12-26.1-26.7s11.7-26.7,26.1-26.7s26.1,12,26.1,26.7C139.4,113.9,127.7,125.9,113.3,125.9L113.3,125.9z M113.3,76.5
		c-12.2,0-22.1,10.2-22.1,22.7c0,12.5,9.9,22.7,22.1,22.7c12.2,0,22.2-10.2,22.2-22.7C135.5,86.7,125.6,76.5,113.3,76.5z" fill="#000"/>
</g></svg>
