<?xml version="1.0" encoding="utf-8"?>
<svg version="1.1" id="图层_1" xmlns="http://www.w3.org/2000/svg" viewBox="0 0 1000 1000" style="enable-background:new 0 0 1000 1000;" xml:space="preserve">
<g>
	<path d="M756.5,942.5H235.7c-104.2,0-186.1-81.8-186.1-186.1V235.7c0-104.2,81.8-186.1,186.1-186.1h520.9
		c104.1,0,186,81.8,186,186.1v520.9C942.5,860.7,860.7,942.5,756.5,942.5z M235.7,124C172.4,124,124,172.4,124,235.7v520.9
		c0,63.2,48.4,111.6,111.6,111.6h520.9c63.2,0,111.6-48.4,111.6-111.6V235.7c0-63.2-48.4-111.6-111.6-111.6H235.7z" fill="#000"/>
	<path d="M384.4,421.6c-11.2,0-18.6-3.7-26.1-11.2L246.8,298.9c-14.9-14.9-14.9-37.2,0-52.1c14.9-14.9,37.2-14.9,52.1,0l111.6,111.6
		c14.9,14.9,14.9,37.2,0,52.1C403,418,395.7,421.6,384.4,421.6z" fill="#000"/>
	<path d="M272.8,533.2c-11.2,0-18.6-3.7-26.1-11.2c-14.9-14.9-14.9-37.2,0-52.1l111.6-111.6c14.9-14.9,37.2-14.9,52.1,0
		c14.9,14.9,14.9,37.2,0,52.1L298.9,522.1C291.4,529.6,284,533.2,272.8,533.2z" fill="#000"/>
	<path d="M607.7,533.2H458.9c-22.3,0-37.2-14.9-37.2-37.2c0-22.3,14.9-37.2,37.2-37.2h148.8c22.3,0,37.2,14.9,37.2,37.2
		C644.9,518.4,630,533.2,607.7,533.2z" fill="#000"/>
</g>
</svg>
